HIERARCHY
ROOT Hips
{
  OFFSET 8.158 26.419 -265.743
  CHANNELS 6 Xposition Yposition Zposition Zrotation Xrotation Yrotation
  JOINT LeftUpLeg
  {
    OFFSET 7.973 -7.221 2.498
    CHANNELS 6 Xposition Yposition Zposition Zrotation Xrotation Yrotation
    JOINT LeftLeg
    {
      OFFSET -0.000 -52.445 0.000
      CHANNELS 6 Xposition Yposition Zposition Zrotation Xrotation Yrotation
      JOINT LeftFoot
      {
        OFFSET -0.000 -41.372 -0.000
        CHANNELS 6 Xposition Yposition Zposition Zrotation Xrotation Yrotation
        End Site
        {
          OFFSET 0.000 -7.854 4.534
        }
      }
    }
  }
  JOINT RightUpLeg
  {
    OFFSET -7.730 -7.640 2.418
    CHANNELS 6 Xposition Yposition Zposition Zrotation Xrotation Yrotation
    JOINT RightLeg
    {
      OFFSET 0.000 -51.604 0.000
      CHANNELS 6 Xposition Yposition Zposition Zrotation Xrotation Yrotation
      JOINT RightFoot
      {
        OFFSET -0.000 -42.543 -0.000
        CHANNELS 6 Xposition Yposition Zposition Zrotation Xrotation Yrotation
        End Site
        {
          OFFSET 0.000 -7.560 4.365
        }
      }
    }
  }
  JOINT Spine
  {
    OFFSET 0.000 5.977 -5.977
    CHANNELS 6 Xposition Yposition Zposition Zrotation Xrotation Yrotation
    JOINT LeftShoulder
    {
      OFFSET -0.000 37.392 0.000
      CHANNELS 6 Xposition Yposition Zposition Zrotation Xrotation Yrotation
      JOINT LeftArm
      {
        OFFSET 20.578 0.000 -0.000
        CHANNELS 6 Xposition Yposition Zposition Zrotation Xrotation Yrotation
        JOINT LeftForeArm
        {
          OFFSET 24.478 0.000 0.000
          CHANNELS 6 Xposition Yposition Zposition Zrotation Xrotation Yrotation
          JOINT LeftHand
          {
            OFFSET 27.481 -0.000 -0.000
            CHANNELS 6 Xposition Yposition Zposition Zrotation Xrotation Yrotation
            JOINT LeftHandThumb1
            {
            OFFSET 4.970 -0.620 3.390
            CHANNELS 6 Xposition Yposition Zposition Zrotation Xrotation Yrotation
              JOINT LeftHandThumb2
              {
              OFFSET 2.150 -0.000 0.000
              CHANNELS 6 Xposition Yposition Zposition Zrotation Xrotation Yrotation
                JOINT LeftHandThumb3
                {
                OFFSET 2.200 -0.000 0.000
                CHANNELS 6 Xposition Yposition Zposition Zrotation Xrotation Yrotation
                  JOINT LeftHandThumb4
                  {
                  OFFSET 1.700 -0.000 0.000
                  CHANNELS 6 Xposition Yposition Zposition Zrotation Xrotation Yrotation
                  }
                }
              }
            }
            JOINT LeftHandIndex1
            {
            OFFSET 8.730 0.680 2.070
            CHANNELS 6 Xposition Yposition Zposition Zrotation Xrotation Yrotation
              JOINT LeftHandIndex2
              {
              OFFSET 2.670 -0.000 0.000
              CHANNELS 6 Xposition Yposition Zposition Zrotation Xrotation Yrotation
                JOINT LeftHandIndex3
                {
                OFFSET 2.130 -0.000 0.000
                CHANNELS 6 Xposition Yposition Zposition Zrotation Xrotation Yrotation
                  JOINT LeftHandIndex4
                  {
                  OFFSET 1.800 -0.000 0.000
                  CHANNELS 6 Xposition Yposition Zposition Zrotation Xrotation Yrotation
                  }
                }
              }
            }
            JOINT LeftHandMiddle1
            {
            OFFSET 9.220 0.670 0.550
            CHANNELS 6 Xposition Yposition Zposition Zrotation Xrotation Yrotation
              JOINT LeftHandMiddle2
              {
              OFFSET 2.660 -0.000 0.000
              CHANNELS 6 Xposition Yposition Zposition Zrotation Xrotation Yrotation
                JOINT LeftHandMiddle3
                {
                OFFSET 2.280 -0.000 0.000
                CHANNELS 6 Xposition Yposition Zposition Zrotation Xrotation Yrotation
                  JOINT LeftHandMiddle4
                  {
                  OFFSET 1.500 -0.000 0.000
                  CHANNELS 6 Xposition Yposition Zposition Zrotation Xrotation Yrotation
                  }
                }
              }
            }
            JOINT LeftHandRing1
            {
            OFFSET 9.250 0.670 -1.130
            CHANNELS 6 Xposition Yposition Zposition Zrotation Xrotation Yrotation
              JOINT LeftHandRing2
              {
              OFFSET 2.470 -0.000 0.000
              CHANNELS 6 Xposition Yposition Zposition Zrotation Xrotation Yrotation
                JOINT LeftHandRing3
                {
                OFFSET 2.210 -0.000 0.000
                CHANNELS 6 Xposition Yposition Zposition Zrotation Xrotation Yrotation
                  JOINT LeftHandRing4
                  {
                  OFFSET 1.800 -0.000 0.000
                  CHANNELS 6 Xposition Yposition Zposition Zrotation Xrotation Yrotation
                  }
                }
              }
            }
            JOINT LeftHandPinky1
            {
            OFFSET 9.350 0.660 -2.720
            CHANNELS 6 Xposition Yposition Zposition Zrotation Xrotation Yrotation
              JOINT LeftHandPinky2
              {
              OFFSET 1.630 -0.000 0.000
              CHANNELS 6 Xposition Yposition Zposition Zrotation Xrotation Yrotation
                JOINT LeftHandPinky3
                {
                OFFSET 1.710 -0.000 0.000
                CHANNELS 6 Xposition Yposition Zposition Zrotation Xrotation Yrotation
                  JOINT LeftHandPinky4
                  {
                  OFFSET 1.800 -0.000 0.000
                  CHANNELS 6 Xposition Yposition Zposition Zrotation Xrotation Yrotation
                  }
                }
              }
            }
          }
        }
      }
    }
    JOINT RightShoulder
    {
      OFFSET -0.000 37.392 0.000
      CHANNELS 6 Xposition Yposition Zposition Zrotation Xrotation Yrotation
      JOINT RightArm
      {
        OFFSET -21.220 0.000 -0.000
        CHANNELS 6 Xposition Yposition Zposition Zrotation Xrotation Yrotation
        JOINT RightForeArm
        {
          OFFSET -23.868 0.000 0.000
          CHANNELS 6 Xposition Yposition Zposition Zrotation Xrotation Yrotation
          JOINT RightHand
          {
            OFFSET -25.486 0.000 -0.000
            CHANNELS 6 Xposition Yposition Zposition Zrotation Xrotation Yrotation
            JOINT RightHandThumb1
            {
            OFFSET -4.970 -0.620 3.390
            CHANNELS 6 Xposition Yposition Zposition Zrotation Xrotation Yrotation
              JOINT RightHandThumb2
              {
              OFFSET -2.150 0.000 0.000
              CHANNELS 6 Xposition Yposition Zposition Zrotation Xrotation Yrotation
                JOINT RightHandThumb3
                {
                OFFSET -2.200 0.000 0.000
                CHANNELS 6 Xposition Yposition Zposition Zrotation Xrotation Yrotation
                  JOINT RightHandThumb4
                  {
                  OFFSET -1.700 0.000 0.000
                  CHANNELS 6 Xposition Yposition Zposition Zrotation Xrotation Yrotation
                  }
                }
              }
            }
            JOINT RightHandIndex1
            {
            OFFSET -8.730 0.680 2.070
            CHANNELS 6 Xposition Yposition Zposition Zrotation Xrotation Yrotation
              JOINT RightHandIndex2
              {
              OFFSET -2.670 0.000 0.000
              CHANNELS 6 Xposition Yposition Zposition Zrotation Xrotation Yrotation
                JOINT RightHandIndex3
                {
                OFFSET -2.130 0.000 0.000
                CHANNELS 6 Xposition Yposition Zposition Zrotation Xrotation Yrotation
                  JOINT RightHandIndex4
                  {
                  OFFSET -1.800 0.000 0.000
                  CHANNELS 6 Xposition Yposition Zposition Zrotation Xrotation Yrotation
                  }
                }
              }
            }
            JOINT RightHandMiddle1
            {
            OFFSET -9.220 0.670 0.550
            CHANNELS 6 Xposition Yposition Zposition Zrotation Xrotation Yrotation
              JOINT RightHandMiddle2
              {
              OFFSET -2.660 0.000 0.000
              CHANNELS 6 Xposition Yposition Zposition Zrotation Xrotation Yrotation
                JOINT RightHandMiddle3
                {
                OFFSET -2.280 0.000 0.000
                CHANNELS 6 Xposition Yposition Zposition Zrotation Xrotation Yrotation
                  JOINT RightHandMiddle4
                  {
                  OFFSET -1.500 0.000 0.000
                  CHANNELS 6 Xposition Yposition Zposition Zrotation Xrotation Yrotation
                  }
                }
              }
            }
            JOINT RightHandRing1
            {
            OFFSET -9.250 0.670 -1.130
            CHANNELS 6 Xposition Yposition Zposition Zrotation Xrotation Yrotation
              JOINT RightHandRing2
              {
              OFFSET -2.470 0.000 0.000
              CHANNELS 6 Xposition Yposition Zposition Zrotation Xrotation Yrotation
                JOINT RightHandRing3
                {
                OFFSET -2.210 0.000 0.000
                CHANNELS 6 Xposition Yposition Zposition Zrotation Xrotation Yrotation
                  JOINT RightHandRing4
                  {
                  OFFSET -1.800 0.000 0.000
                  CHANNELS 6 Xposition Yposition Zposition Zrotation Xrotation Yrotation
                  }
                }
              }
            }
            JOINT RightHandPinky1
            {
            OFFSET -9.350 0.660 -2.720
            CHANNELS 6 Xposition Yposition Zposition Zrotation Xrotation Yrotation
              JOINT RightHandPinky2
              {
              OFFSET -1.630 0.000 0.000
              CHANNELS 6 Xposition Yposition Zposition Zrotation Xrotation Yrotation
                JOINT RightHandPinky3
                {
                OFFSET -1.710 0.000 0.000
                CHANNELS 6 Xposition Yposition Zposition Zrotation Xrotation Yrotation
                  JOINT RightHandPinky4
                  {
                  OFFSET -1.800 0.000 0.000
                  CHANNELS 6 Xposition Yposition Zposition Zrotation Xrotation Yrotation
                  }
                }
              }
            }
          }
        }
      }
    }
    JOINT Neck
    {
      OFFSET -0.000 37.392 0.000
      CHANNELS 6 Xposition Yposition Zposition Zrotation Xrotation Yrotation
      JOINT Head
      {
        OFFSET -0.000 19.896 -0.000
        CHANNELS 6 Xposition Yposition Zposition Zrotation Xrotation Yrotation
        End Site
        {
          OFFSET -0.000 0.080 -0.000
        }
      }
    }
  }
}
MOTION
Frames:	6
Frame Time:	0.0333333
10.743 27.0899 -277.178 2.71961 15.3914 -18.9812 7.99805 -7.24202 2.79133 4.73411 -12.2305 1.60807 -3.57628e-05 -52.9932 -7.15256e-05 -9.71758 14.1112 7.04271e-06 5.96046e-06 -40.7969 0 11.34 -11.671 8.84598 -7.76939 -7.67723 2.59733 -1.04018 -17.9828 -1.45801 5.96046e-06 -51.9787 -2.38419e-05 2.20219 17.0213 -3.57154e-06 1.19209e-05 -41.7593 2.38419e-05 -1.48849 -30.2647 -2.13324 2.38419e-05 5.74744 -5.74746 0.290829 -12.7736 1.14258 -1.19209e-05 37.3926 -2.38419e-05 -32.3822 1.36604e-05 -5.77826 20.5245 -3.72529e-06 -2.38419e-05 -42.9231 34.5729 9.06958 24.2783 1.19209e-05 1.19209e-05 -3.16576e-06 -1.14562e-05 -120.895 27.5134 1.19209e-05 -2.38419e-05 3.34641 0.40788 9.2071 0.0062 0.0497 0.0339 0 0 0 0 0.0215 0 0 0 0 0 0.022 0 0 0 0 0 0.017 0 0 0 0 -0.0068 0.0873 0.0207 0 0 0 0 0.0267 0 0 0 0 0 0.0213 0 0 0 0 0 0.018 0 0 0 0 -0.0067 0.0922 0.0055 0 0 0 0 0.0266 0 0 0 0 0 0.0228 0 0 0 0 0 0.015 0 0 0 0 -0.0067 0.0925 -0.0113 0 0 0 0 0.0247 0 0 0 0 0 0.0221 0 0 0 0 0 0.018 0 0 0 0 -0.0066 0.0935 -0.0272 0 0 0 0 0.0163 0 0 0 0 0 0.0171 0 0 0 0 0 0.018 0 0 0 0 -1.19209e-05 37.3926 -2.38419e-05 33.734 -2.13443e-06 5.55165 -21.3595 5.96046e-06 2.38419e-05 46.1937 28.6081 -5.16596 -23.0908 -5.96046e-06 0 -2.77969e-05 4.58471e-06 101.858 -26.3026 5.96046e-06 1.78814e-05 46.1102 -1.34661 -17.0264 -0.0062 0.0497 0.0339 0 0 0 0 0.0215 0 0 0 0 0 0.022 0 0 0 0 0 0.017 0 0 0 0 0.0068 0.0873 0.0207 0 0 0 0 0.0267 0 0 0 0 0 0.0213 0 0 0 0 0 0.018 0 0 0 0 0.0067 0.0922 0.0055 0 0 0 0 0.0266 0 0 0 0 0 0.0228 0 0 0 0 0 0.015 0 0 0 0 0.0067 0.0925 -0.0113 0 0 0 0 0.0247 0 0 0 0 0 0.0221 0 0 0 0 0 0.018 0 0 0 0 0.0066 0.0935 -0.0272 0 0 0 0 0.0163 0 0 0 0 0 0.0171 0 0 0 0 0 0.018 0 0 0 0 -1.19209e-05 37.3926 -2.38419e-05 9.87397 5.27959 -0.917582 -1.19209e-05 19.6257 0 7.57724e-06 -8.96462e-06 -3.4151e-06 
10.8559 27.7812 -277.158 2.82778 15.8103 -18.8738 7.96836 -7.18131 2.87435 5.17627 -13.1851 1.65271 0 -53.5537 4.76837e-05 -9.0572 15.1958 -3.53883e-06 -5.96046e-06 -40.8537 0 11.8184 -12.9592 9.41805 -7.7256 -7.63707 2.69456 -0.0951492 -17.0635 -1.76446 0 -52.757 0 3.64567 16.0578 1.77688e-06 -5.96046e-06 -41.6604 -2.38419e-05 2.31345 -27.9558 1.35133 5.96046e-06 5.74856 -5.74861 0.328856 -13.5477 1.0544 5.96046e-06 37.3926 2.38419e-05 -32.142 1.36604e-05 -5.94711 20.418 8.9407e-06 -2.38419e-05 -44.0316 33.2443 10.0451 24.372 -1.19209e-05 1.19209e-05 2.65139e-05 -2.72611e-06 -122.973 27.8299 -2.38419e-05 -1.19209e-05 3.17707 0.325668 10.8144 0.0062 0.0497 0.0339 0 0 0 0 0.0215 0 0 0 0 0 0.022 0 0 0 0 0 0.017 0 0 0 0 -0.0068 0.0873 0.0207 0 0 0 0 0.0267 0 0 0 0 0 0.0213 0 0 0 0 0 0.018 0 0 0 0 -0.0067 0.0922 0.0055 0 0 0 0 0.0266 0 0 0 0 0 0.0228 0 0 0 0 0 0.015 0 0 0 0 -0.0067 0.0925 -0.0113 0 0 0 0 0.0247 0 0 0 0 0 0.0221 0 0 0 0 0 0.018 0 0 0 0 -0.0066 0.0935 -0.0272 0 0 0 0 0.0163 0 0 0 0 0 0.0171 0 0 0 0 0 0.018 0 0 0 0 5.96046e-06 37.3926 2.38419e-05 33.2127 -3.84198e-06 5.7131 -21.2514 1.19209e-05 0 46.5318 29.8866 -7.94081 -22.8132 1.19209e-05 -2.38419e-05 -2.78666e-05 6.24281e-06 99.994 -26.9036 -1.19209e-05 -8.9407e-06 47.6716 -0.986519 -17.7751 -0.0062 0.0497 0.0339 0 0 0 0 0.0215 0 0 0 0 0 0.022 0 0 0 0 0 0.017 0 0 0 0 0.0068 0.0873 0.0207 0 0 0 0 0.0267 0 0 0 0 0 0.0213 0 0 0 0 0 0.018 0 0 0 0 0.0067 0.0922 0.0055 0 0 0 0 0.0266 0 0 0 0 0 0.0228 0 0 0 0 0 0.015 0 0 0 0 0.0067 0.0925 -0.0113 0 0 0 0 0.0247 0 0 0 0 0 0.0221 0 0 0 0 0 0.018 0 0 0 0 0.0066 0.0935 -0.0272 0 0 0 0 0.0163 0 0 0 0 0 0.0171 0 0 0 0 0 0.018 0 0 0 0 5.96046e-06 37.3926 2.38419e-05 9.6888 5.34702 -0.91151 -5.96046e-06 19.6768 0 9.81839e-06 -9.8184e-06 1.70755e-06 
10.8693 27.8686 -276.892 2.98172 15.623 -18.49 7.96773 -7.14525 2.84514 6.17889 -15.4175 2.64275 -5.96046e-06 -53.6062 -4.76837e-05 -8.14828 19.507 -3.62305e-06 -5.96046e-06 -41.3495 4.76837e-05 14.1789 -14.0271 11.5183 -7.71951 -7.64059 2.86648 0.852033 -15.7395 -1.16517 0 -52.8946 2.38419e-05 4.43325 15.699 -3.54743e-06 0 -41.6716 -9.53674e-05 4.05351 -21.4072 2.88591 0 5.75499 -5.75502 0.411294 -13.9556 0.989524 -1.78814e-05 37.3926 -2.38419e-05 -32.5476 1.19528e-05 -5.94936 20.4963 1.49012e-06 0 -44.3072 31.247 10.9708 24.3483 1.19209e-05 -2.38419e-05 1.4092e-06 4.73257e-06 -123.163 27.023 -4.76837e-05 -1.19209e-05 1.34448 0.210658 11.7639 0.0062 0.0497 0.0339 0 0 0 0 0.0215 0 0 0 0 0 0.022 0 0 0 0 0 0.017 0 0 0 0 -0.0068 0.0873 0.0207 0 0 0 0 0.0267 0 0 0 0 0 0.0213 0 0 0 0 0 0.018 0 0 0 0 -0.0067 0.0922 0.0055 0 0 0 0 0.0266 0 0 0 0 0 0.0228 0 0 0 0 0 0.015 0 0 0 0 -0.0067 0.0925 -0.0113 0 0 0 0 0.0247 0 0 0 0 0 0.0221 0 0 0 0 0 0.018 0 0 0 0 -0.0066 0.0935 -0.0272 0 0 0 0 0.0163 0 0 0 0 0 0.0171 0 0 0 0 0 0.018 0 0 0 0 -1.78814e-05 37.3926 -2.38419e-05 33.1162 -5.12264e-06 5.70034 -21.3885 0 -2.38419e-05 45.9047 31.4562 -9.84362 -22.8843 2.98023e-05 0 -1.43867e-05 8.46013e-06 99.8143 -27.4416 -1.19209e-05 0 44.3755 -1.15437 -21.0518 -0.0062 0.0497 0.0339 0 0 0 0 0.0215 0 0 0 0 0 0.022 0 0 0 0 0 0.017 0 0 0 0 0.0068 0.0873 0.0207 0 0 0 0 0.0267 0 0 0 0 0 0.0213 0 0 0 0 0 0.018 0 0 0 0 0.0067 0.0922 0.0055 0 0 0 0 0.0266 0 0 0 0 0 0.0228 0 0 0 0 0 0.015 0 0 0 0 0.0067 0.0925 -0.0113 0 0 0 0 0.0247 0 0 0 0 0 0.0221 0 0 0 0 0 0.018 0 0 0 0 0.0066 0.0935 -0.0272 0 0 0 0 0.0163 0 0 0 0 0 0.0171 0 0 0 0 0 0.018 0 0 0 0 -1.78814e-05 37.3926 -2.38419e-05 8.58739 5.32491 -0.802908 1.19209e-05 19.8598 2.38419e-05 8.53774e-06 -9.8184e-06 0 
10.8693 27.8686 -276.892 2.98172 15.623 -18.49 7.96773 -7.14525 2.84514 6.17889 -15.4175 2.64275 -5.96046e-06 -53.6062 -4.76837e-05 -8.14828 19.507 -3.62305e-06 -5.96046e-06 -41.3495 4.76837e-05 14.1789 -14.0271 11.5183 -7.71951 -7.64059 2.86648 0.852033 -15.7395 -1.16517 0 -52.8946 2.38419e-05 4.43325 15.699 -3.54743e-06 0 -41.6716 -9.53674e-05 4.05351 -21.4072 2.88591 0 5.75499 -5.75502 0.411294 -13.9556 0.989524 -1.78814e-05 37.3926 -2.38419e-05 -32.5476 1.19528e-05 -5.94936 20.4963 1.49012e-06 0 -44.3072 31.247 10.9708 24.3483 1.19209e-05 -2.38419e-05 1.4092e-06 4.73257e-06 -123.163 27.023 -4.76837e-05 -1.19209e-05 1.34448 0.210658 11.7639 0.0062 0.0497 0.0339 0 0 0 0 0.0215 0 0 0 0 0 0.022 0 0 0 0 0 0.017 0 0 0 0 -0.0068 0.0873 0.0207 0 0 0 0 0.0267 0 0 0 0 0 0.0213 0 0 0 0 0 0.018 0 0 0 0 -0.0067 0.0922 0.0055 0 0 0 0 0.0266 0 0 0 0 0 0.0228 0 0 0 0 0 0.015 0 0 0 0 -0.0067 0.0925 -0.0113 0 0 0 0 0.0247 0 0 0 0 0 0.0221 0 0 0 0 0 0.018 0 0 0 0 -0.0066 0.0935 -0.0272 0 0 0 0 0.0163 0 0 0 0 0 0.0171 0 0 0 0 0 0.018 0 0 0 0 -1.78814e-05 37.3926 -2.38419e-05 33.1162 -5.12264e-06 5.70034 -21.3885 0 -2.38419e-05 45.9047 31.4562 -9.84362 -22.8843 2.98023e-05 0 -1.43867e-05 8.46013e-06 99.8143 -27.4416 -1.19209e-05 0 44.3755 -1.15437 -21.0518 -0.0062 0.0497 0.0339 0 0 0 0 0.0215 0 0 0 0 0 0.022 0 0 0 0 0 0.017 0 0 0 0 0.0068 0.0873 0.0207 0 0 0 0 0.0267 0 0 0 0 0 0.0213 0 0 0 0 0 0.018 0 0 0 0 0.0067 0.0922 0.0055 0 0 0 0 0.0266 0 0 0 0 0 0.0228 0 0 0 0 0 0.015 0 0 0 0 0.0067 0.0925 -0.0113 0 0 0 0 0.0247 0 0 0 0 0 0.0221 0 0 0 0 0 0.018 0 0 0 0 0.0066 0.0935 -0.0272 0 0 0 0 0.0163 0 0 0 0 0 0.0171 0 0 0 0 0 0.018 0 0 0 0 -1.78814e-05 37.3926 -2.38419e-05 8.58739 5.32491 -0.802908 1.19209e-05 19.8598 2.38419e-05 8.53774e-06 -9.8184e-06 0 
10.8271 27.1567 -276.662 2.92095 15.1466 -17.9918 7.99558 -7.13339 2.80771 6.98938 -16.8063 3.01771 2.98023e-05 -53.1418 0 -8.08973 22.4848 -5.5441e-06 0 -41.6267 0 15.9062 -16.19 13.4145 -7.74392 -7.64793 2.86112 1.23778 -14.9916 -1.06785 1.19209e-05 -52.4294 4.76837e-05 4.40036 16.2953 0 -5.96046e-06 -41.5249 0 3.81707 -18.2253 2.72362 0 5.75545 -5.75547 0.459007 -13.7504 0.864537 5.96046e-06 37.3926 4.76837e-05 -33.0549 1.45142e-05 -5.93074 20.5983 -1.04308e-05 -4.76837e-05 -43.9924 30.3278 11.3415 24.3046 3.57628e-05 0 1.58157e-05 -4.84974e-06 -124.095 27.0564 1.19209e-05 -1.19209e-05 1.04119 0.147818 10.8487 0.0062 0.0497 0.0339 0 0 0 0 0.0215 0 0 0 0 0 0.022 0 0 0 0 0 0.017 0 0 0 0 -0.0068 0.0873 0.0207 0 0 0 0 0.0267 0 0 0 0 0 0.0213 0 0 0 0 0 0.018 0 0 0 0 -0.0067 0.0922 0.0055 0 0 0 0 0.0266 0 0 0 0 0 0.0228 0 0 0 0 0 0.015 0 0 0 0 -0.0067 0.0925 -0.0113 0 0 0 0 0.0247 0 0 0 0 0 0.0221 0 0 0 0 0 0.018 0 0 0 0 -0.0066 0.0935 -0.0272 0 0 0 0 0.0163 0 0 0 0 0 0.0171 0 0 0 0 0 0.018 0 0 0 0 5.96046e-06 37.3926 4.76837e-05 33.1506 -5.97642e-06 5.69843 -21.435 5.96046e-06 -2.38419e-05 45.4739 31.5407 -9.41516 -23.2938 -1.19209e-05 -2.38419e-05 2.6743e-05 7.55077e-06 98.7506 -26.4529 1.19209e-05 -2.98023e-06 39.0998 -0.43168 -18.649 -0.0062 0.0497 0.0339 0 0 0 0 0.0215 0 0 0 0 0 0.022 0 0 0 0 0 0.017 0 0 0 0 0.0068 0.0873 0.0207 0 0 0 0 0.0267 0 0 0 0 0 0.0213 0 0 0 0 0 0.018 0 0 0 0 0.0067 0.0922 0.0055 0 0 0 0 0.0266 0 0 0 0 0 0.0228 0 0 0 0 0 0.015 0 0 0 0 0.0067 0.0925 -0.0113 0 0 0 0 0.0247 0 0 0 0 0 0.0221 0 0 0 0 0 0.018 0 0 0 0 0.0066 0.0935 -0.0272 0 0 0 0 0.0163 0 0 0 0 0 0.0171 0 0 0 0 0 0.018 0 0 0 0 5.96046e-06 37.3926 4.76837e-05 7.98532 5.82285 -0.815365 -1.78814e-05 19.7584 -7.15256e-05 9.8184e-06 -9.8184e-06 1.70755e-06 
10.7904 26.3805 -276.429 2.79928 14.5253 -17.3619 8.00593 -7.10902 2.74348 7.87674 -18.4103 3.23817 -5.96046e-06 -52.6215 -2.38419e-05 -7.88125 23.9228 -3.73605e-06 -5.96046e-06 -41.4354 -2.38419e-05 17.48 -17.5295 15.1164 -7.75113 -7.66949 2.83039 1.48189 -14.2575 -1.00147 -5.96046e-06 -51.9634 -4.76837e-05 4.41413 17.147 5.36093e-06 -1.19209e-05 -41.3618 7.15256e-05 3.39073 -15.7281 2.41166 1.19209e-05 5.75078 -5.75078 0.513721 -13.3027 0.723587 1.19209e-05 37.3926 4.76837e-05 -33.3826 9.3915e-06 -5.90356 20.6845 -1.93715e-05 -4.76837e-05 -44.0121 29.3164 11.0531 24.4237 -3.57628e-05 4.76837e-05 1.27927e-05 -2.81768e-06 -124.231 26.9948 5.96046e-05 1.19209e-05 1.24042 0.00397601 -2.95832 0.0062 0.0497 0.0339 0 0 0 0 0.0215 0 0 0 0 0 0.022 0 0 0 0 0 0.017 0 0 0 0 -0.0068 0.0873 0.0207 0 0 0 0 0.0267 0 0 0 0 0 0.0213 0 0 0 0 0 0.018 0 0 0 0 -0.0067 0.0922 0.0055 0 0 0 0 0.0266 0 0 0 0 0 0.0228 0 0 0 0 0 0.015 0 0 0 0 -0.0067 0.0925 -0.0113 0 0 0 0 0.0247 0 0 0 0 0 0.0221 0 0 0 0 0 0.018 0 0 0 0 -0.0066 0.0935 -0.0272 0 0 0 0 0.0163 0 0 0 0 0 0.0171 0 0 0 0 0 0.018 0 0 0 0 1.19209e-05 37.3926 4.76837e-05 33.0839 -8.53773e-07 5.71007 -21.383 5.96046e-06 -2.38419e-05 44.9935 31.8096 -8.53971 -23.7949 -5.96046e-06 0 6.73195e-05 1.1108e-05 100.108 -26.079 -5.96046e-06 -8.9407e-06 33.4693 -0.336277 -18.6111 -0.0062 0.0497 0.0339 0 0 0 0 0.0215 0 0 0 0 0 0.022 0 0 0 0 0 0.017 0 0 0 0 0.0068 0.0873 0.0207 0 0 0 0 0.0267 0 0 0 0 0 0.0213 0 0 0 0 0 0.018 0 0 0 0 0.0067 0.0922 0.0055 0 0 0 0 0.0266 0 0 0 0 0 0.0228 0 0 0 0 0 0.015 0 0 0 0 0.0067 0.0925 -0.0113 0 0 0 0 0.0247 0 0 0 0 0 0.0221 0 0 0 0 0 0.018 0 0 0 0 0.0066 0.0935 -0.0272 0 0 0 0 0.0163 0 0 0 0 0 0.0171 0 0 0 0 0 0.018 0 0 0 0 1.19209e-05 37.3926 4.76837e-05 7.17909 6.15147 -0.773292 -2.38419e-05 19.6569 0 1.09923e-05 -1.06722e-05 0 
